<svg xmlns="http://www.w3.org/2000/svg" version="1.1" xmlns:xlink="http://www.w3.org/1999/xlink" xmlns:svgjs="http://svgjs.dev/svgjs" width="256" height="256"><svg t="1737017240829" class="icon" viewBox="0 0 1024 1024" version="1.1" xmlns="http://www.w3.org/2000/svg" p-id="8124" id="SvgjsSvg1001" xmlns:xlink="http://www.w3.org/1999/xlink" width="256" height="256"><path d="M942.08 890.88a40.96 40.96 0 1 1 0 81.92H81.92a40.96 40.96 0 1 1 0-81.92h860.16zM880.64 51.2c56.55552 0 102.4 45.84448 102.4 102.4v552.96c0 56.55552-45.84448 102.4-102.4 102.4H143.36C86.80448 808.96 40.96 763.11552 40.96 706.56V153.6C40.96 97.04448 86.80448 51.2 143.36 51.2h737.28zM474.07104 341.6064h-28.2624l-6.38976 52.59264h-32.19456c-37.51936 0-58.65472 19.74272-63.40608 59.22816l-2.21184 18.67776c-0.49152 4.42368-0.73728 8.51968-0.73728 12.288 0 31.1296 16.95744 46.6944 50.87232 46.6944h59.22816l23.10144-189.48096z m163.18464 52.59264h-137.6256L482.9184 531.08736h28.2624l13.27104-110.592h55.296l-13.5168 110.592h28.2624l13.27104-110.592h26.29632c17.03936 0 25.55904 8.35584 25.55904 25.06752 0 1.31072-0.16384 3.60448-0.49152 6.88128l-9.58464 78.6432h28.2624l9.58464-77.90592c0.49152-4.42368 0.73728-8.51968 0.73728-12.288 0-31.1296-16.95744-46.6944-50.87232-46.6944z m116.98176 0h-28.2624L709.0176 531.08736H737.28l16.95744-136.88832z m94.12608 0h-61.68576l-16.71168 136.88832h28.2624l13.27104-110.592h33.66912c17.03936 0 25.55904 8.35584 25.55904 25.06752 0 1.31072-0.16384 3.60448-0.49152 6.88128l-9.58464 78.6432h28.2624l9.58464-77.90592c0.49152-4.42368 0.73728-8.51968 0.73728-12.288 0-31.1296-16.95744-46.6944-50.87232-46.6944z m-572.6208-47.67744h-39.3216c-8.35584 0-14.09024 3.76832-17.2032 11.30496l-70.77888 173.2608h31.70304l21.38112-53.32992h79.38048l8.11008 53.32992h30.72l-28.01664-171.29472c-1.47456-8.84736-6.79936-13.27104-15.9744-13.27104zM436.224 420.00384l-10.32192 84.7872h-30.96576c-17.03936 0-25.55904-8.27392-25.55904-24.82176 0-1.47456 0.16384-3.85024 0.49152-7.12704l2.4576-20.15232c2.62144-21.79072 13.18912-32.68608 31.70304-32.68608H436.224zM264.92928 373.5552l11.79648 77.16864h-64.38912l31.21152-77.16864h21.38112zM761.856 346.27584h-32.19456l-3.6864 29.4912h32.19456l3.6864-29.4912z" p-id="8125" fill="#1296db"></path></svg><style>@media (prefers-color-scheme: light) { :root { filter: none; } }
@media (prefers-color-scheme: dark) { :root { filter: none; } }
</style></svg>